<svg width="48" height="48" viewBox="0 0 48 48" fill="none" xmlns="http://www.w3.org/2000/svg">
  <defs>
    <radialGradient id="tile" cx=".28" cy=".18" r=".95">
      <stop offset="0" stop-color="#1E1B4B"/>
      <stop offset=".55" stop-color="#111433"/>
      <stop offset="1" stop-color="#080A16"/>
    </radialGradient>
    <radialGradient id="berryA" cx=".33" cy=".28" r=".85">
      <stop offset="0" stop-color="#E0E7FF"/>
      <stop offset=".35" stop-color="#818CF8"/>
      <stop offset=".75" stop-color="#6366F1"/>
      <stop offset="1" stop-color="#3730A3"/>
    </radialGradient>
    <radialGradient id="berryB" cx=".33" cy=".28" r=".85">
      <stop offset="0" stop-color="#E0F2FE"/>
      <stop offset=".4" stop-color="#60A5FA"/>
      <stop offset=".8" stop-color="#2563EB"/>
      <stop offset="1" stop-color="#1E3A8A"/>
    </radialGradient>
    <radialGradient id="berryC" cx=".33" cy=".28" r=".85">
      <stop offset="0" stop-color="#EDE9FE"/>
      <stop offset=".4" stop-color="#A78BFA"/>
      <stop offset=".8" stop-color="#7C3AED"/>
      <stop offset="1" stop-color="#4C1D95"/>
    </radialGradient>
    <filter id="glow" x="-40%" y="-40%" width="180%" height="180%">
      <feGaussianBlur stdDeviation="1.6" result="b"/>
      <feMerge><feMergeNode in="b"/><feMergeNode in="SourceGraphic"/></feMerge>
    </filter>
  </defs>
  <rect width="48" height="48" rx="12" fill="url(#tile)"/>
  <rect x=".75" y=".75" width="46.5" height="46.5" rx="11.25" fill="none" stroke="#818CF8" stroke-opacity=".35" stroke-width="1.5"/>
  <g stroke="#818CF8" stroke-opacity=".55" stroke-width="1.1">
    <line x1="18" y1="20" x2="31" y2="15"/>
    <line x1="18" y1="20" x2="29" y2="31"/>
    <line x1="31" y1="15" x2="29" y2="31"/>
    <line x1="31" y1="15" x2="39" y2="24"/>
    <line x1="29" y1="31" x2="39" y2="24"/>
    <line x1="18" y1="20" x2="10" y2="31"/>
  </g>
  <g filter="url(#glow)">
    <circle cx="18" cy="20" r="7" fill="url(#berryA)"/>
    <circle cx="31" cy="15" r="4.6" fill="url(#berryC)"/>
    <circle cx="29" cy="31" r="5.8" fill="url(#berryB)"/>
  </g>
  <ellipse cx="15.6" cy="17.2" rx="2.4" ry="1.6" fill="#fff" opacity=".78" transform="rotate(-24 15.6 17.2)"/>
  <ellipse cx="27.2" cy="28.9" rx="1.7" ry="1.1" fill="#fff" opacity=".6" transform="rotate(-24 27.2 28.9)"/>
  <ellipse cx="29.7" cy="13.6" rx="1.3" ry=".9" fill="#fff" opacity=".6" transform="rotate(-24 29.7 13.6)"/>
  <circle cx="39" cy="24" r="1.8" fill="#60A5FA"/>
  <circle cx="10" cy="31" r="1.5" fill="#22D3EE"/>
</svg>
